<svg width="512" height="512" viewBox="0 0 512 512" xmlns="http://www.w3.org/2000/svg">
  <rect width="512" height="512" rx="96" fill="#0B0D12"/>
  <rect x="16" y="16" width="480" height="480" rx="84" fill="none" stroke="#262B38" stroke-width="2"/>
  <path d="M256 96
           C 210 160, 176 200, 176 264
           C 176 328, 216 368, 256 368
           C 296 368, 336 328, 336 264
           C 336 232, 320 208, 300 188
           C 304 220, 292 240, 276 248
           C 284 216, 268 180, 240 156
           C 244 188, 228 212, 208 232
           C 196 244, 192 256, 192 268
           C 192 308, 220 336, 256 336
           C 292 336, 320 308, 320 268
           C 320 224, 292 196, 256 96 Z"
        fill="#F2C14E"/>
  <circle cx="256" cy="288" r="26" fill="#0B0D12"/>
</svg>
